# xmcd CD database file
#
# Track frame offsets:
#	150
#	13555
#	30193
#	41163
#	61885
#	79513
#	91993
#	106920
#	122640
#	137370
#	151170
#	162875
#	180483
#	195048
#
# Disc length: 2803 seconds
#
# Revision: 1
# Processed by: cddbd v1.5.1PL0 Copyright (c) Steve Scherf et al.
# Submitted via: CDex 1.51
#
DISCID=920af10e
DTITLE=Various Artist - Jazz à tous les étages
DYEAR=1900
DGENRE=Jazz
TTITLE0=Dave Brubeck - Take five
TTITLE1=The Glenn Miller Orchestra Moonlight serenade
TTITLE2=George Benson Summertime
TTITLE3=Toots Thielemans Bluesette
TTITLE4=Duke Ellington Satin doll
TTITLE5=Wild Bill Davies Lullaby of birdland
TTITLE6=Mongo Santamaria Watermelon man
TTITLE7=Glen Miller Orchestra In the mood
TTITLE8=Eroll Garner Misty
TTITLE9=Dave Brubeck Blue rondo a la turk
TTITLE10=Miles Davies Round midnight
TTITLE11=Mahalia Jackson When the saints go marchin in
TTITLE12=Neal Hefti Lill darlin
TTITLE13=Louis Armstrong Mack the knife
EXTD=
EXTT0=
EXTT1=
EXTT2=
EXTT3=
EXTT4=
EXTT5=
EXTT6=
EXTT7=
EXTT8=
EXTT9=
EXTT10=
EXTT11=
EXTT12=
EXTT13=
PLAYORDER=
